<svg width="16" height="16" viewBox="0 0 16 16" fill="none" xmlns="http://www.w3.org/2000/svg">
<path d="M5.33333 2.66671H14V4.00004H5.33333V2.66671ZM3 4.33337C2.44771 4.33337 2 3.88566 2 3.33337C2 2.78109 2.44771 2.33337 3 2.33337C3.55229 2.33337 4 2.78109 4 3.33337C4 3.88566 3.55229 4.33337 3 4.33337ZM3 9.00004C2.44771 9.00004 2 8.55231 2 8.00004C2 7.44777 2.44771 7.00004 3 7.00004C3.55229 7.00004 4 7.44777 4 8.00004C4 8.55231 3.55229 9.00004 3 9.00004ZM3 13.6C2.44771 13.6 2 13.1523 2 12.6C2 12.0478 2.44771 11.6 3 11.6C3.55229 11.6 4 12.0478 4 12.6C4 13.1523 3.55229 13.6 3 13.6ZM5.33333 7.33337H14V8.66671H5.33333V7.33337ZM5.33333 12H14V13.3334H5.33333V12Z" fill="#3C54EF"/>
</svg>
