<svg width="20" height="21" viewBox="0 0 20 21" fill="none" xmlns="http://www.w3.org/2000/svg">
<path d="M12.8806 8.11235L12.7622 7.99397C12.2219 7.47312 11.5459 7.0779 10.7697 6.86992C8.3475 6.22088 6.02134 7.59377 5.36004 10.0617C5.32434 10.195 5.30495 10.3446 5.27391 10.7207C5.14535 12.2792 4.7789 13.4412 3.774 14.62C5.65722 15.3604 7.88826 15.882 9.58483 15.882C11.642 15.882 13.4705 14.4993 14.0107 12.4833C14.4423 10.8722 13.9596 9.23157 12.8806 8.11235ZM11.074 5.22733L15.19 2.02601C15.5217 1.76799 15.9937 1.79737 16.2908 2.09455L18.786 4.58972C19.0832 4.88689 19.1126 5.35884 18.8546 5.69058L15.6541 9.80549C15.8983 10.7957 15.9032 11.8599 15.6205 12.9147C14.8721 15.7079 12.3453 17.5487 9.58483 17.5487C6.66683 17.5487 2.91683 16.2971 0.833496 15.0471C4.14998 12.5471 3.37285 11.0386 3.75016 9.63041C4.63219 6.33864 7.78536 4.41595 11.074 5.22733ZM13.9181 6.79283C13.9729 6.84571 14.0267 6.89952 14.0795 6.95427L15.0249 7.89969L17.0873 5.24804L15.6326 3.79324L12.9809 5.85564L13.9181 6.79283Z" fill="#A1A8B3"/>
</svg>
