<svg width="20" height="20" viewBox="0 0 20 20" fill="none" xmlns="http://www.w3.org/2000/svg">
<path d="M7.08317 5.83333C7.08317 6.75381 6.33698 7.5 5.4165 7.5C4.49603 7.5 3.74984 6.75381 3.74984 5.83333C3.74984 4.91286 4.49603 4.16667 5.4165 4.16667C6.33698 4.16667 7.08317 4.91286 7.08317 5.83333ZM2.08317 5.83333C2.08317 7.67428 3.57555 9.16667 5.4165 9.16667C7.25745 9.16667 8.74984 7.67428 8.74984 5.83333C8.74984 3.99238 7.25745 2.5 5.4165 2.5C3.57555 2.5 2.08317 3.99238 2.08317 5.83333ZM7.49984 13.75C7.49984 12.5994 6.5671 11.6667 5.4165 11.6667C4.26591 11.6667 3.33317 12.5994 3.33317 13.75V15.8333H7.49984V13.75ZM9.1665 17.5H1.6665V13.75C1.6665 11.6789 3.34544 10 5.4165 10C7.48757 10 9.1665 11.6789 9.1665 13.75V17.5ZM16.2498 5.83333C16.2498 6.75381 15.5037 7.5 14.5832 7.5C13.6627 7.5 12.9165 6.75381 12.9165 5.83333C12.9165 4.91286 13.6627 4.16667 14.5832 4.16667C15.5037 4.16667 16.2498 4.91286 16.2498 5.83333ZM11.2498 5.83333C11.2498 7.67428 12.7423 9.16667 14.5832 9.16667C16.4241 9.16667 17.9165 7.67428 17.9165 5.83333C17.9165 3.99238 16.4241 2.5 14.5832 2.5C12.7423 2.5 11.2498 3.99238 11.2498 5.83333ZM16.6665 13.75C16.6665 12.5994 15.7338 11.6667 14.5832 11.6667C13.4326 11.6667 12.4998 12.5994 12.4998 13.75V15.8333H16.6665V13.75ZM10.8332 15.8333V13.75C10.8332 11.6789 12.5121 10 14.5832 10C16.6543 10 18.3332 11.6789 18.3332 13.75V17.5H10.8332V15.8333Z" fill="#A1A8B3"/>
</svg>
