<svg width="20" height="20" viewBox="0 0 20 20" fill="none" xmlns="http://www.w3.org/2000/svg">
<path d="M10.8332 17.5V19.1667H9.1665V17.5H2.49984C2.0396 17.5 1.6665 17.1269 1.6665 16.6667V3.33333C1.6665 2.8731 2.0396 2.5 2.49984 2.5H7.49984C8.49542 2.5 9.38909 2.93646 9.99984 3.62848C10.6106 2.93646 11.5043 2.5 12.4998 2.5H17.4998C17.9601 2.5 18.3332 2.8731 18.3332 3.33333V16.6667C18.3332 17.1269 17.9601 17.5 17.4998 17.5H10.8332ZM16.6665 15.8333V4.16667H12.4998C11.5793 4.16667 10.8332 4.91286 10.8332 5.83333V15.8333H16.6665ZM9.1665 15.8333V5.83333C9.1665 4.91286 8.42034 4.16667 7.49984 4.16667H3.33317V15.8333H9.1665Z" fill="#A1A8B3"/>
</svg>
