<svg width="24" height="24" viewBox="0 0 24 24" fill="none" xmlns="http://www.w3.org/2000/svg">
<g clip-path="url(#clip0_23_111)">
<path d="M12 23.9998C18.6274 23.9998 24 18.6272 24 11.9998C24 5.37234 18.6274 -0.000244141 12 -0.000244141C5.37258 -0.000244141 0 5.37234 0 11.9998C0 18.6272 5.37258 23.9998 12 23.9998Z" fill="#F0F0F0"/>
<path d="M2.48056 4.69409C1.53796 5.92048 0.827189 7.334 0.41333 8.86958H6.65605L2.48056 4.69409Z" fill="#0052B4"/>
<path d="M23.5865 8.86953C23.1726 7.334 22.4618 5.92048 21.5193 4.69409L17.3439 8.86953H23.5865Z" fill="#0052B4"/>
<path d="M0.41333 15.1304C0.827236 16.6659 1.538 18.0794 2.48056 19.3058L6.65591 15.1304H0.41333Z" fill="#0052B4"/>
<path d="M19.3058 2.48061C18.0794 1.538 16.6659 0.827236 15.1304 0.41333V6.656L19.3058 2.48061Z" fill="#0052B4"/>
<path d="M4.69409 21.5192C5.92048 22.4618 7.334 23.1726 8.86953 23.5865V17.3439L4.69409 21.5192Z" fill="#0052B4"/>
<path d="M8.86948 0.41333C7.33395 0.827236 5.92044 1.538 4.69409 2.48056L8.86948 6.65595V0.41333Z" fill="#0052B4"/>
<path d="M15.1304 23.5865C16.6659 23.1726 18.0794 22.4618 19.3058 21.5193L15.1304 17.3439V23.5865Z" fill="#0052B4"/>
<path d="M17.3439 15.1304L21.5193 19.3058C22.4618 18.0795 23.1726 16.6659 23.5865 15.1304H17.3439Z" fill="#0052B4"/>
<path d="M23.8984 10.4346H13.5653H13.5653V0.101334C13.0529 0.0346309 12.5305 -0.000244141 12 -0.000244141C11.4694 -0.000244141 10.9471 0.0346309 10.4348 0.101334V10.4345V10.4345H0.101578C0.034875 10.9469 0 11.4693 0 11.9998C0 12.5303 0.034875 13.0526 0.101578 13.565H10.4347H10.4347V23.8982C10.9471 23.9649 11.4694 23.9998 12 23.9998C12.5305 23.9998 13.0529 23.9649 13.5652 23.8982V13.5651V13.565H23.8984C23.9651 13.0526 24 12.5303 24 11.9998C24 11.4693 23.9651 10.9469 23.8984 10.4346Z" fill="#D80027"/>
<path d="M15.1305 15.1304L20.4853 20.4852C20.7316 20.239 20.9665 19.9817 21.1907 19.7148L16.6062 15.1304H15.1305V15.1304Z" fill="#D80027"/>
<path d="M8.86951 15.1305H8.86941L3.51465 20.4853C3.76084 20.7315 4.01823 20.9665 4.28504 21.1906L8.86951 16.6061V15.1305Z" fill="#D80027"/>
<path d="M8.86951 8.8696V8.86951L3.5147 3.51465C3.26842 3.76084 3.03348 4.01823 2.80933 4.28504L7.39384 8.86955H8.86951V8.8696Z" fill="#D80027"/>
<path d="M15.1305 8.86956L20.4854 3.51465C20.2392 3.26837 19.9818 3.03344 19.715 2.80933L15.1305 7.39384V8.86956Z" fill="#D80027"/>
</g>
<defs>
<clipPath id="clip0_23_111">
<rect width="24" height="24" fill="white"/>
</clipPath>
</defs>
</svg>
