<svg width="20" height="21" viewBox="0 0 20 21" fill="none" xmlns="http://www.w3.org/2000/svg">
<path d="M10 20.0498C4.47715 20.0498 0 15.5726 0 10.0498C0 4.52695 4.47715 0.0498047 10 0.0498047C15.5228 0.0498047 20 4.52695 20 10.0498C20 15.5726 15.5228 20.0498 10 20.0498ZM10 18.0498C14.4183 18.0498 18 14.4681 18 10.0498C18 5.63152 14.4183 2.0498 10 2.0498C5.58172 2.0498 2 5.63152 2 10.0498C2 14.4681 5.58172 18.0498 10 18.0498ZM11 8.5498V13.0498H12V15.0498H8V13.0498H9V10.5498H8V8.5498H11ZM11.5 6.0498C11.5 6.87823 10.8284 7.5498 10 7.5498C9.1716 7.5498 8.5 6.87823 8.5 6.0498C8.5 5.22137 9.1716 4.5498 10 4.5498C10.8284 4.5498 11.5 5.22137 11.5 6.0498Z" fill="#A1A8B3"/>
</svg>
