<svg width="20" height="20" viewBox="0 0 20 20" fill="none" xmlns="http://www.w3.org/2000/svg">
<path d="M2.493 17.5C2.03655 17.5 1.6665 17.1292 1.6665 16.6722V3.32783C1.6665 2.87063 2.04593 2.5 2.493 2.5H17.5067C17.9632 2.5 18.3332 2.87079 18.3332 3.32783V16.6722C18.3332 17.1293 17.9538 17.5 17.5067 17.5H2.493ZM16.6665 12.5V4.16667H3.33317V15.8333L11.6665 7.5L16.6665 12.5ZM16.6665 14.857L11.6665 9.857L5.6902 15.8333H16.6665V14.857ZM6.6665 9.16667C5.74603 9.16667 4.99984 8.4205 4.99984 7.5C4.99984 6.57952 5.74603 5.83333 6.6665 5.83333C7.58698 5.83333 8.33317 6.57952 8.33317 7.5C8.33317 8.4205 7.58698 9.16667 6.6665 9.16667Z" fill="#A1A8B3"/>
</svg>
