<svg width="20" height="20" viewBox="0 0 20 20" fill="none" xmlns="http://www.w3.org/2000/svg">
<path d="M7.95817 9.58329C6.92264 9.58329 6.08317 8.74379 6.08317 7.70829C6.08317 6.67276 6.92264 5.83329 7.95817 5.83329C8.99367 5.83329 9.83317 6.67276 9.83317 7.70829C9.83317 8.74379 8.99367 9.58329 7.95817 9.58329ZM8.33317 16.4566V13.6666C8.33317 13.2596 8.45334 12.8855 8.66992 12.552C8.42375 12.5177 8.17218 12.5 7.9165 12.5C6.60985 12.5 5.41125 12.9626 4.4756 13.733C5.37408 15.06 6.73811 16.046 8.33317 16.4566ZM3.71055 12.2166C4.88677 11.3473 6.34161 10.8333 7.9165 10.8333C8.78609 10.8333 9.61909 10.99 10.3888 11.2767C11.1204 10.9906 11.9935 10.8333 12.9165 10.8333C14.2996 10.8333 15.5706 11.1865 16.4215 11.7969C16.5812 11.2252 16.6665 10.6225 16.6665 9.99996C16.6665 6.31806 13.6818 3.33329 9.99984 3.33329C6.31794 3.33329 3.33317 6.31806 3.33317 9.99996C3.33317 10.777 3.46614 11.5231 3.71055 12.2166ZM15.7327 13.4049C15.405 12.9605 14.3088 12.5 12.9165 12.5C11.2448 12.5 9.99984 13.1639 9.99984 13.6666V16.6666C12.4378 16.6666 14.5701 15.358 15.7327 13.4049ZM9.99984 18.3333C5.39746 18.3333 1.6665 14.6023 1.6665 9.99996C1.6665 5.39758 5.39746 1.66663 9.99984 1.66663C14.6022 1.66663 18.3332 5.39758 18.3332 9.99996C18.3332 14.6023 14.6022 18.3333 9.99984 18.3333ZM12.9165 10.4166C11.996 10.4166 11.2498 9.67046 11.2498 8.74996C11.2498 7.82948 11.996 7.08329 12.9165 7.08329C13.837 7.08329 14.5832 7.82948 14.5832 8.74996C14.5832 9.67046 13.837 10.4166 12.9165 10.4166Z" fill="#A1A8B3"/>
</svg>
