<svg width="126" height="19" viewBox="0 0 126 19" fill="none" xmlns="http://www.w3.org/2000/svg">
<path d="M4.60047 12.4781H2.40447V15.5741H1.22847V6.8981H4.60047C6.30447 6.8981 7.39647 8.0141 7.39647 9.6821C7.39647 11.3021 6.29247 12.4781 4.60047 12.4781ZM4.39647 7.9541H2.40447V11.4221H4.34847C5.51247 11.4221 6.16047 10.7381 6.16047 9.6701C6.16047 8.5781 5.50047 7.9541 4.39647 7.9541ZM7.88294 12.6341C7.88294 10.8221 9.17894 9.5501 10.9429 9.5501C12.6949 9.5501 13.9909 10.8221 13.9909 12.6341C13.9909 14.4461 12.6949 15.7181 10.9429 15.7181C9.17894 15.7181 7.88294 14.4461 7.88294 12.6341ZM9.02294 12.6341C9.02294 13.8581 9.80294 14.7101 10.9429 14.7101C12.0709 14.7101 12.8629 13.8581 12.8629 12.6341C12.8629 11.4101 12.0709 10.5581 10.9429 10.5581C9.80294 10.5581 9.02294 11.4101 9.02294 12.6341ZM16.2301 15.5741L14.3101 9.7061H15.4741L16.4461 12.7541C16.5781 13.1861 16.6981 13.6301 16.8061 14.1461C16.9021 13.6301 17.0581 13.1381 17.1901 12.7541L18.1741 9.7061H19.3261L20.2981 12.7541C20.3941 13.0421 20.5861 13.7261 20.6821 14.1461C20.7781 13.6781 20.8861 13.2701 21.0541 12.7541L22.0381 9.7061H23.2141L21.2101 15.5741H20.1421L19.1221 12.4301C18.9301 11.8421 18.8101 11.3861 18.7501 11.0621C18.6901 11.3501 18.5821 11.7341 18.3661 12.4421L17.3461 15.5741H16.2301ZM26.4435 15.7181C24.7155 15.7181 23.5275 14.4701 23.5275 12.6461C23.5275 10.8101 24.6915 9.5381 26.3955 9.5381C28.0635 9.5381 29.1555 10.6901 29.1555 12.4301V12.8501L24.6195 12.8621C24.7035 14.0981 25.3515 14.7821 26.4675 14.7821C27.3435 14.7821 27.9195 14.4221 28.1115 13.7501H29.1675C28.8795 15.0101 27.8955 15.7181 26.4435 15.7181ZM26.3955 10.4861C25.4115 10.4861 24.7875 11.0741 24.6435 12.1061H28.0275C28.0275 11.1341 27.3915 10.4861 26.3955 10.4861ZM33.7754 9.6581V10.6901H33.2714C32.2034 10.6901 31.5434 11.3381 31.5434 12.4661V15.5741H30.4154V9.7181H31.4714L31.5434 10.6061C31.7834 9.9941 32.3714 9.5861 33.1754 9.5861C33.3794 9.5861 33.5474 9.6101 33.7754 9.6581ZM37.1544 15.7181C35.4264 15.7181 34.2384 14.4701 34.2384 12.6461C34.2384 10.8101 35.4024 9.5381 37.1064 9.5381C38.7744 9.5381 39.8664 10.6901 39.8664 12.4301V12.8501L35.3304 12.8621C35.4144 14.0981 36.0624 14.7821 37.1784 14.7821C38.0544 14.7821 38.6304 14.4221 38.8224 13.7501H39.8784C39.5904 15.0101 38.6064 15.7181 37.1544 15.7181ZM37.1064 10.4861C36.1224 10.4861 35.4984 11.0741 35.3544 12.1061H38.7384C38.7384 11.1341 38.1024 10.4861 37.1064 10.4861ZM43.4783 15.7181C41.7743 15.7181 40.7423 14.4461 40.7423 12.6581C40.7423 10.8581 41.7863 9.5381 43.5263 9.5381C44.4263 9.5381 45.1823 9.9341 45.5783 10.6541V6.7421H46.6943V15.5741H45.6863L45.5903 14.5061C45.2063 15.3101 44.4143 15.7181 43.4783 15.7181ZM43.7063 14.6981C44.8583 14.6981 45.5663 13.8461 45.5663 12.6221C45.5663 11.4221 44.8583 10.5581 43.7063 10.5581C42.5543 10.5581 41.8823 11.4221 41.8823 12.6221C41.8823 13.8341 42.5543 14.6981 43.7063 14.6981ZM52.6229 15.5741H51.6029V6.7421H52.7309V10.7141C53.1149 9.9461 53.9069 9.5381 54.8669 9.5381C56.5469 9.5381 57.5549 10.8581 57.5549 12.6701C57.5549 14.4461 56.4989 15.7181 54.7949 15.7181C53.8709 15.7181 53.0909 15.3101 52.7069 14.5061L52.6229 15.5741ZM52.7429 12.6221C52.7429 13.8461 53.4389 14.6981 54.5909 14.6981C55.7429 14.6981 56.4269 13.8341 56.4269 12.6221C56.4269 11.4221 55.7429 10.5581 54.5909 10.5581C53.4389 10.5581 52.7429 11.4221 52.7429 12.6221ZM58.035 18.2021V17.2781H58.791C59.331 17.2781 59.763 17.1941 60.039 16.4501L60.243 15.8861L57.879 9.7061H59.067L60.771 14.4341L62.511 9.7061H63.675L60.903 16.8941C60.507 17.9021 59.919 18.3221 59.019 18.3221C58.647 18.3221 58.335 18.2741 58.035 18.2021Z" fill="#BFC3C9"/>
<path d="M77.6471 13.3936C77.7451 13.3936 77.8186 13.4263 77.8676 13.4916C77.9166 13.557 77.9411 13.6305 77.9411 13.7121C77.9411 13.7938 77.9247 13.8836 77.8921 13.9816C77.8594 14.0632 77.8186 14.1367 77.7696 14.2021C77.5246 14.496 77.2388 14.7573 76.9122 14.986C76.6019 15.1983 76.2671 15.3616 75.9078 15.4759C75.5648 15.5902 75.2137 15.6556 74.8544 15.6719C74.5115 15.6882 74.193 15.6474 73.899 15.5494C73.4254 16.023 72.9028 16.3905 72.3312 16.6518C71.7596 16.8968 71.2043 17.0193 70.6654 17.0193C70.3061 17.0193 69.9631 16.9621 69.6365 16.8478C69.3262 16.7171 69.0485 16.5211 68.8036 16.2598C68.5586 15.9822 68.3708 15.6392 68.2401 15.2309C68.1095 14.8063 68.0523 14.3 68.0687 13.7121C68.1013 12.7649 68.232 11.7768 68.4606 10.7479C68.6893 9.71904 68.9669 8.70649 69.2935 7.71026C69.6365 6.69771 70.0203 5.74231 70.4449 4.84408C70.8695 3.92951 71.286 3.12926 71.6943 2.44334C72.1189 1.75741 72.519 1.2103 72.8946 0.802014C73.2703 0.393726 73.5887 0.189581 73.85 0.189581C74.0787 0.189581 74.4298 0.361063 74.9034 0.704026C75.0667 0.834678 75.181 0.957164 75.2464 1.07149C75.328 1.16947 75.3199 1.2593 75.2219 1.34096C74.6503 1.86357 74.0787 2.58215 73.5071 3.49672C72.9355 4.41129 72.4047 5.38302 71.9147 6.4119C71.4248 7.44079 71.0002 8.46968 70.6409 9.49857C70.2816 10.5275 70.0203 11.4175 69.857 12.1688C69.7753 12.5281 69.7263 12.9282 69.71 13.3691C69.6936 13.8101 69.7426 14.2184 69.857 14.594C69.9713 14.9696 70.1591 15.2881 70.4204 15.5494C70.698 15.7944 71.09 15.9005 71.5963 15.8679C72.1189 15.8352 72.6007 15.5902 73.0416 15.133C72.225 14.8553 71.5963 14.4144 71.1553 13.8101C70.7307 13.2058 70.5021 12.5771 70.4694 11.9238C70.4367 11.2705 70.5919 10.6663 70.9348 10.111C71.2941 9.55573 71.8494 9.1801 72.6007 8.98413C72.764 8.93513 72.9273 8.91063 73.0906 8.91063C73.4009 8.91063 73.703 8.97596 73.997 9.10661C74.3073 9.23726 74.5849 9.42508 74.8299 9.67005C75.0749 9.91502 75.2709 10.209 75.4179 10.552C75.5648 10.8786 75.6383 11.2379 75.6383 11.6298C75.6383 12.0545 75.5648 12.5362 75.4179 13.0752C75.2872 13.6141 75.0749 14.0959 74.7809 14.5205C74.9932 14.6022 75.2055 14.6348 75.4179 14.6185C75.6465 14.6022 75.867 14.545 76.0793 14.447C76.3079 14.349 76.5121 14.2266 76.6917 14.0796C76.8877 13.9326 77.0592 13.7774 77.2062 13.6141C77.3205 13.4671 77.4675 13.3936 77.6471 13.3936ZM73.6785 14.1531C73.9398 13.4835 74.0542 12.92 74.0215 12.4627C74.0052 11.9891 73.9072 11.6217 73.7275 11.3604C73.5479 11.0827 73.3274 10.9112 73.0661 10.8459C72.8048 10.7643 72.568 10.7888 72.3557 10.9194C72.1597 11.0337 72.0291 11.2542 71.9637 11.5808C71.8984 11.9075 71.9719 12.3321 72.1842 12.8547C72.3149 13.165 72.5272 13.4263 72.8211 13.6386C73.1151 13.8346 73.4009 14.0061 73.6785 14.1531Z" fill="#BFC3C9"/>
<path d="M78.5189 11.8258C78.3066 11.7278 78.1351 11.5972 78.0044 11.4339C77.6451 11.0419 77.4573 10.6499 77.441 10.258C77.441 9.86603 77.5471 9.52307 77.7595 9.2291C77.9881 8.93513 78.2984 8.70649 78.6904 8.54317C79.0986 8.37986 79.5314 8.3227 79.9887 8.37169C80.1684 8.38802 80.3317 8.44518 80.4787 8.54317C80.642 8.62483 80.7563 8.74732 80.8216 8.91063C80.8869 9.05762 80.8951 9.2536 80.8461 9.49857C80.8135 9.74354 80.691 10.0212 80.4787 10.3315C80.6583 10.3805 80.8625 10.3805 81.0911 10.3315C81.3361 10.2662 81.581 10.1927 81.826 10.111C82.071 10.0293 82.3078 9.95585 82.5364 9.89053C82.7651 9.80887 82.9529 9.77621 83.0999 9.79254C83.2632 9.79254 83.3775 9.84153 83.4428 9.93952C83.5245 10.0375 83.5653 10.16 83.5653 10.307C83.5653 10.4376 83.5408 10.5765 83.4918 10.7234C83.4428 10.8704 83.3775 10.9929 83.2959 11.0909C83.1325 11.2705 82.8957 11.5727 82.5854 11.9973C82.2915 12.4056 82.0057 12.8465 81.728 13.3202C81.4504 13.7774 81.2217 14.2184 81.0421 14.643C80.8788 15.0513 80.8543 15.3534 80.9686 15.5494C81.0339 15.6637 81.1646 15.6882 81.3606 15.6229C81.5565 15.5576 81.777 15.4433 82.022 15.2799C82.267 15.1166 82.5119 14.9125 82.7569 14.6675C83.0182 14.4225 83.2469 14.1694 83.4428 13.9081C83.5245 13.8101 83.6143 13.7203 83.7123 13.6386C83.8103 13.557 83.9246 13.5161 84.0553 13.5161C84.1696 13.5161 84.2757 13.5488 84.3737 13.6141C84.4881 13.7121 84.5126 13.8183 84.4472 13.9326C84.3982 14.0306 84.3411 14.1122 84.2757 14.1776C84.1778 14.2919 84.0634 14.4307 83.9328 14.594C83.8185 14.741 83.696 14.888 83.5653 15.035C83.451 15.182 83.3367 15.3208 83.2224 15.4514C83.1244 15.5821 83.0509 15.6719 83.0019 15.7209C82.6589 16.1455 82.2833 16.4803 81.875 16.7253C81.4831 16.9539 81.1401 17.0682 80.8461 17.0682C80.2745 17.0682 79.8581 16.9621 79.5968 16.7498C79.3518 16.5375 79.213 16.268 79.1803 15.9414C79.1476 15.5984 79.1966 15.2228 79.3273 14.8145C79.4743 14.4062 79.6621 14.0061 79.8907 13.6141C80.1194 13.2222 80.3643 12.8629 80.6256 12.5362C80.8869 12.1933 81.1238 11.9238 81.3361 11.7278C81.1074 11.8258 80.838 11.9075 80.5277 11.9728C80.2174 12.0381 79.9071 12.0626 79.5968 12.0463C79.3355 12.3076 79.0986 12.5689 78.8863 12.8302C78.6904 13.0588 78.4617 13.3283 78.2004 13.6386C77.9554 13.9489 77.7431 14.2021 77.5635 14.398C77.4655 14.5124 77.343 14.5858 77.196 14.6185C77.0654 14.6512 76.951 14.6512 76.8531 14.6185C76.7551 14.5858 76.6897 14.5205 76.6571 14.4225C76.6407 14.3082 76.7061 14.1612 76.8531 13.9816L78.5189 11.8258ZM79.4498 10.307C79.6131 10.0293 79.6947 9.8007 79.6947 9.62106C79.7111 9.44141 79.6784 9.30259 79.5968 9.2046C79.5314 9.09028 79.4416 9.02495 79.3273 9.00862C79.213 8.97596 79.1068 8.97596 79.0088 9.00862C78.8292 9.09028 78.7802 9.27809 78.8618 9.57206C78.9435 9.8497 79.1395 10.0947 79.4498 10.307Z" fill="#BFC3C9"/>
<path d="M92.6446 13.4671C92.8243 13.4671 92.9141 13.5488 92.9141 13.7121C92.9141 13.7938 92.8815 13.8999 92.8161 14.0306C92.7671 14.1449 92.6691 14.2755 92.5222 14.4225C91.8036 15.2881 91.1176 15.9414 90.4644 16.3823C89.8111 16.8069 89.2559 17.0193 88.7986 17.0193C88.4393 17.0193 88.1453 16.9458 87.9167 16.7988C87.688 16.6355 87.5329 16.3742 87.4512 16.0149C86.8633 16.6845 86.1855 17.0193 85.4179 17.0193C85.124 17.0193 84.8382 16.9621 84.5605 16.8478C84.2992 16.7171 84.0706 16.5456 83.8746 16.3333C83.6786 16.121 83.5153 15.876 83.3847 15.5984C83.2703 15.3044 83.2132 14.986 83.2132 14.643C83.2132 14.3327 83.2458 14.0387 83.3112 13.7611C83.3765 13.4835 83.45 13.2058 83.5316 12.9282C83.744 12.2913 84.0298 11.7278 84.389 11.2379C84.7483 10.7316 85.1485 10.3151 85.5894 9.98852C86.0304 9.66188 86.4795 9.41691 86.9368 9.2536C87.3941 9.07395 87.8268 8.98413 88.2351 8.98413C88.5781 8.98413 88.8884 9.04945 89.166 9.1801C89.4437 9.29442 89.656 9.48224 89.803 9.74354C89.9826 9.59656 90.1786 9.46591 90.3909 9.35158C90.6195 9.22093 90.8155 9.15561 90.9788 9.15561C91.3381 9.15561 91.5178 9.29442 91.5178 9.57206C91.5178 9.73538 91.4524 9.94769 91.3218 10.209C91.2075 10.4703 91.0768 10.7643 90.9298 11.0909C90.6849 11.6135 90.4236 12.2096 90.1459 12.8792C89.8683 13.5488 89.6233 14.2429 89.411 14.9615C89.3783 15.0431 89.3457 15.133 89.313 15.2309C89.2967 15.3289 89.2885 15.4106 89.2885 15.4759C89.2885 15.7046 89.3783 15.8189 89.558 15.8189C89.754 15.8189 90.0806 15.6474 90.5379 15.3044C90.9952 14.9451 91.5341 14.398 92.1547 13.6631C92.2364 13.5815 92.318 13.5325 92.3997 13.5161C92.4977 13.4835 92.5793 13.4671 92.6446 13.4671ZM88.9456 11.2134C88.9129 10.8378 88.8149 10.5683 88.6516 10.405C88.5046 10.2417 88.3168 10.16 88.0881 10.16C87.7942 10.16 87.4757 10.2825 87.1327 10.5275C86.7898 10.7724 86.4632 11.0909 86.1529 11.4829C85.8426 11.8748 85.5813 12.3239 85.3689 12.8302C85.173 13.3365 85.075 13.8591 85.075 14.398C85.075 14.7737 85.1485 15.1166 85.2955 15.4269C85.4424 15.7209 85.6874 15.8679 86.0304 15.8679C86.2427 15.8679 86.4877 15.7617 86.7653 15.5494C87.0593 15.3208 87.3206 15.0023 87.5492 14.594C87.7452 13.9081 87.982 13.2793 88.2596 12.7077C88.5373 12.1198 88.7414 11.6707 88.8721 11.3604L88.9456 11.2134Z" fill="#BFC3C9"/>
<path d="M100.232 13.4916C100.444 13.4916 100.551 13.5896 100.551 13.7856C100.551 13.9653 100.42 14.1939 100.159 14.4715C99.44 15.3208 98.8031 15.9577 98.2478 16.3823C97.7089 16.8069 97.2108 17.0193 96.7535 17.0193C96.2799 17.0193 95.9288 16.8886 95.7001 16.6273C95.4878 16.366 95.3817 16.023 95.3817 15.5984C95.3817 15.2881 95.4306 14.9615 95.5286 14.6185C95.6593 14.1286 95.8063 13.6958 95.9696 13.3202C96.1329 12.9282 96.2799 12.5852 96.4105 12.2913C96.5575 11.9973 96.68 11.7523 96.778 11.5563C96.876 11.3604 96.925 11.2134 96.925 11.1154C96.925 11.0174 96.8842 10.9684 96.8025 10.9684C96.6882 10.9684 96.5167 11.0419 96.2881 11.1889C96.0757 11.3359 95.8308 11.5237 95.5531 11.7523C95.2918 11.981 95.0224 12.2423 94.7447 12.5362C94.4671 12.8302 94.2139 13.1323 93.9853 13.4426L93.7158 14.1286C93.6832 14.1939 93.6505 14.2592 93.6178 14.3245C93.6015 14.3735 93.5852 14.4307 93.5688 14.496L93.1524 15.6964C93.0054 16.1047 92.7604 16.4313 92.4175 16.6763C92.0745 16.9049 91.7642 17.0193 91.4866 17.0193C91.1926 17.0193 91.0456 16.8804 91.0456 16.6028C91.0456 16.5211 91.0701 16.3905 91.1191 16.2108C91.4457 15.2309 91.7724 14.2755 92.099 13.3447C92.442 12.3974 92.8013 11.4339 93.1769 10.454C93.2259 10.3233 93.2586 10.2253 93.2749 10.16C93.2912 10.0947 93.3402 9.99668 93.4219 9.86603C93.5852 9.57206 93.8302 9.35159 94.1568 9.2046C94.4997 9.05762 94.81 8.98413 95.0877 8.98413H95.2347C95.447 9.03312 95.5531 9.10661 95.5531 9.2046C95.5531 9.2536 95.5368 9.31076 95.5041 9.37608C95.4878 9.44141 95.4633 9.5149 95.4306 9.59656L94.7937 11.2624C95.104 10.9684 95.4306 10.6989 95.7736 10.454C96.1166 10.1927 96.4514 9.97219 96.778 9.79254C97.1046 9.61289 97.4149 9.47407 97.7089 9.37608C98.0029 9.27809 98.2642 9.2291 98.4928 9.2291C98.7215 9.2291 98.9011 9.28626 99.0318 9.40058C99.1787 9.5149 99.2522 9.68638 99.2522 9.91502C99.2522 10.2253 99.1297 10.6254 98.8848 11.1154C98.6398 11.638 98.3703 12.2423 98.0764 12.9282C97.7824 13.6141 97.5374 14.2919 97.3414 14.9615C97.3251 15.0105 97.3088 15.084 97.2924 15.182C97.2761 15.2636 97.2679 15.3453 97.2679 15.4269C97.2679 15.4923 97.2843 15.5576 97.3169 15.6229C97.3659 15.6719 97.4394 15.6964 97.5374 15.6964C97.7497 15.6964 98.0192 15.5494 98.3458 15.2554C98.6888 14.9451 99.1706 14.4225 99.7912 13.6876C99.9218 13.557 100.069 13.4916 100.232 13.4916Z" fill="#BFC3C9"/>
<path d="M110.091 0.238575C110.303 0.81018 110.369 1.49611 110.287 2.29635C110.205 3.08027 110.026 3.92134 109.748 4.81958C109.471 5.71781 109.128 6.64871 108.719 7.61227C108.327 8.5595 107.927 9.48224 107.519 10.3805C107.127 11.2787 106.751 12.1279 106.392 12.9282C106.049 13.7121 105.796 14.3899 105.633 14.9615C105.6 15.0431 105.575 15.133 105.559 15.2309C105.543 15.3289 105.535 15.4106 105.535 15.4759C105.535 15.5739 105.543 15.6392 105.559 15.6719C105.575 15.6882 105.6 15.6964 105.633 15.6964C105.829 15.6964 106.155 15.5412 106.613 15.2309C107.07 14.9043 107.609 14.3735 108.229 13.6386C108.36 13.508 108.507 13.4426 108.67 13.4426C108.752 13.4426 108.842 13.4508 108.94 13.4671C109.038 13.4835 109.087 13.5406 109.087 13.6386C109.087 13.7203 109.062 13.8019 109.013 13.8836C108.981 13.9653 108.899 14.0959 108.768 14.2755C108.033 15.1248 107.339 15.7944 106.686 16.2843C106.049 16.7743 105.502 17.0193 105.045 17.0193C104.473 17.0193 104.073 16.8314 103.844 16.4558C103.714 16.2762 103.64 16.072 103.624 15.8434C103.003 16.5456 102.309 16.8968 101.542 16.8968C101.248 16.8968 100.962 16.8396 100.684 16.7253C100.423 16.5946 100.186 16.4231 99.9738 16.2108C99.7778 15.9985 99.6145 15.7536 99.4838 15.4759C99.3695 15.182 99.3123 14.8635 99.3123 14.5205C99.3123 14.2102 99.345 13.9163 99.4103 13.6386C99.4756 13.361 99.5491 13.0833 99.6308 12.8057C99.9248 11.9075 100.366 11.1562 100.954 10.552C101.542 9.93136 102.154 9.48224 102.791 9.2046C103.444 8.91063 104.057 8.79631 104.628 8.86164C105.216 8.91063 105.649 9.14744 105.927 9.57206C106.221 9.00046 106.506 8.37986 106.784 7.71026C107.078 7.04067 107.331 6.33841 107.543 5.60349C107.756 4.86857 107.911 4.12549 108.009 3.37423C108.107 2.60665 108.107 1.83907 108.009 1.07149C107.976 0.859175 108.058 0.679528 108.254 0.532544C108.466 0.38556 108.703 0.279405 108.964 0.214078C109.226 0.148752 109.471 0.116089 109.699 0.116089C109.928 0.116089 110.058 0.156918 110.091 0.238575ZM104.726 12.1688C104.808 11.9891 104.881 11.834 104.947 11.7033C105.012 11.5727 105.069 11.4584 105.118 11.3604C105.102 10.8378 104.988 10.4785 104.775 10.2825C104.579 10.0702 104.334 9.98852 104.04 10.0375C103.746 10.0865 103.428 10.2417 103.085 10.503C102.758 10.7479 102.448 11.0664 102.154 11.4584C101.876 11.8503 101.64 12.2913 101.444 12.7812C101.264 13.2712 101.174 13.7693 101.174 14.2755C101.174 14.6512 101.248 14.9941 101.395 15.3044C101.558 15.5984 101.811 15.7454 102.154 15.7454C102.415 15.7454 102.734 15.5657 103.109 15.2064C103.501 14.8472 103.812 14.3817 104.04 13.8101L104.065 13.7121C104.179 13.4181 104.293 13.1487 104.408 12.9037C104.522 12.6424 104.628 12.3974 104.726 12.1688Z" fill="#BFC3C9"/>
<path d="M112.682 14.4715C111.98 15.3208 111.294 15.9577 110.625 16.3823C109.955 16.8069 109.392 17.0193 108.934 17.0193C108.444 17.0193 108.085 16.8886 107.856 16.6273C107.628 16.366 107.513 16.0149 107.513 15.5739C107.513 15.4269 107.53 15.2718 107.562 15.1085C107.595 14.9451 107.636 14.7818 107.685 14.6185C107.914 13.8346 108.158 13.0915 108.42 12.3893C108.697 11.6707 108.942 11.0256 109.155 10.454C109.204 10.3233 109.236 10.2253 109.253 10.16C109.269 10.0947 109.318 9.99668 109.4 9.86603C109.563 9.57206 109.808 9.35159 110.135 9.2046C110.478 9.05762 110.788 8.98413 111.065 8.98413H111.212C111.425 9.03312 111.531 9.10661 111.531 9.2046C111.531 9.2536 111.515 9.31076 111.482 9.37608C111.466 9.44141 111.441 9.5149 111.408 9.59656L110.649 11.5808C110.453 12.1035 110.257 12.6669 110.061 13.2712C109.865 13.8591 109.685 14.4225 109.522 14.9615C109.49 15.0595 109.465 15.1493 109.449 15.2309C109.432 15.3126 109.424 15.3943 109.424 15.4759C109.424 15.7046 109.506 15.8189 109.669 15.8189C109.865 15.8189 110.2 15.6474 110.674 15.3044C111.147 14.9615 111.694 14.4225 112.315 13.6876C112.446 13.557 112.601 13.4916 112.78 13.4916C112.976 13.4916 113.074 13.5815 113.074 13.7611C113.074 13.9081 112.944 14.1449 112.682 14.4715ZM110.992 8.07772C110.698 8.07772 110.445 7.9879 110.233 7.80825C110.037 7.62861 109.939 7.39996 109.939 7.12233C109.939 6.92635 109.979 6.73854 110.061 6.55889C110.159 6.37924 110.282 6.22409 110.429 6.09344C110.592 5.94646 110.763 5.83213 110.943 5.75048C111.139 5.66882 111.335 5.62799 111.531 5.62799C111.825 5.62799 112.07 5.70965 112.266 5.87296C112.478 6.03628 112.584 6.28125 112.584 6.60788C112.584 6.78753 112.544 6.96718 112.462 7.14682C112.38 7.31014 112.266 7.46529 112.119 7.61227C111.972 7.74293 111.8 7.85725 111.604 7.95524C111.408 8.0369 111.204 8.07772 110.992 8.07772Z" fill="#BFC3C9"/>
<path d="M119.712 13.4671C119.892 13.4671 119.982 13.557 119.982 13.7366C119.982 13.8183 119.957 13.9081 119.908 14.0061C119.876 14.1041 119.794 14.2347 119.663 14.398C119.026 15.182 118.275 15.8189 117.41 16.3088C116.544 16.7824 115.67 17.0193 114.788 17.0193C113.923 17.0193 113.212 16.7579 112.657 16.2353C112.102 15.7127 111.824 15.0268 111.824 14.1776C111.824 13.5406 111.947 12.9119 112.192 12.2913C112.437 11.6707 112.771 11.1154 113.196 10.6254C113.637 10.1355 114.151 9.74354 114.739 9.44957C115.327 9.13927 115.964 8.98413 116.65 8.98413C117.058 8.98413 117.418 9.06578 117.728 9.2291C118.038 9.37608 118.275 9.58839 118.438 9.86603C118.585 10.0783 118.659 10.3641 118.659 10.7234C118.659 11.0991 118.577 11.491 118.414 11.8993C118.071 12.7649 117.54 13.4753 116.822 14.0306C116.119 14.5858 115.246 14.9206 114.2 15.035C114.347 15.2636 114.552 15.4351 114.813 15.5494C115.074 15.6637 115.344 15.7209 115.621 15.7209C116.16 15.7209 116.748 15.5657 117.385 15.2554C118.022 14.9451 118.651 14.4225 119.271 13.6876C119.369 13.5406 119.516 13.4671 119.712 13.4671ZM115.597 10.0865C115.352 10.2172 115.115 10.4213 114.886 10.6989C114.658 10.9602 114.454 11.2624 114.274 11.6053C114.094 11.9483 113.947 12.3076 113.833 12.6832C113.735 13.0425 113.686 13.3855 113.686 13.7121C113.686 13.7938 113.686 13.8673 113.686 13.9326C113.702 13.9979 113.719 14.0714 113.735 14.1531C113.768 14.1531 113.784 14.1531 113.784 14.1531C113.8 14.1367 113.825 14.1286 113.857 14.1286C114.102 14.0796 114.347 14.0224 114.592 13.9571C114.837 13.8918 115.066 13.8101 115.278 13.7121C115.507 13.5978 115.719 13.459 115.915 13.2957C116.111 13.1323 116.274 12.92 116.405 12.6587C116.536 12.4301 116.626 12.1851 116.675 11.9238C116.724 11.6462 116.748 11.393 116.748 11.1644C116.748 10.8378 116.691 10.5601 116.577 10.3315C116.462 10.0865 116.283 9.96402 116.038 9.96402C115.94 9.96402 115.793 10.0048 115.597 10.0865Z" fill="#BFC3C9"/>
<path d="M119.543 2.19976C119.555 2.10464 119.693 2.10464 119.705 2.19976L119.8 2.99777C119.923 4.02822 120.74 4.84065 121.776 4.96292L122.579 5.05761C122.674 5.0689 122.674 5.20694 122.579 5.21823L121.776 5.31292C120.74 5.43519 119.923 6.24762 119.8 7.27806L119.705 8.07607C119.693 8.17121 119.555 8.17121 119.543 8.07607L119.448 7.27806C119.325 6.24762 118.508 5.43519 117.472 5.31292L116.67 5.21823C116.574 5.20694 116.574 5.0689 116.67 5.05761L117.472 4.96292C118.508 4.84065 119.325 4.02822 119.448 2.99777L119.543 2.19976Z" fill="#BFC3C9"/>
<path d="M123.81 0.692216C123.818 0.628799 123.91 0.628799 123.918 0.692216L123.981 1.22422C124.063 1.91119 124.608 2.45281 125.298 2.53432L125.833 2.59745C125.897 2.60498 125.897 2.697 125.833 2.70453L125.298 2.76766C124.608 2.84917 124.063 3.39079 123.981 4.07775L123.918 4.60975C123.91 4.67318 123.818 4.67318 123.81 4.60975L123.747 4.07775C123.665 3.39079 123.12 2.84917 122.429 2.76766L121.894 2.70453C121.83 2.697 121.83 2.60498 121.894 2.59745L122.429 2.53432C123.12 2.45281 123.665 1.91119 123.747 1.22422L123.81 0.692216Z" fill="#BFC3C9"/>
<path d="M123.253 5.79646C123.26 5.7407 123.341 5.7407 123.348 5.79646L123.404 6.26426C123.476 6.86832 123.955 7.34457 124.562 7.41624L125.032 7.47175C125.089 7.47837 125.089 7.55929 125.032 7.56591L124.562 7.62142C123.955 7.69309 123.476 8.16934 123.404 8.77339L123.348 9.24119C123.341 9.29696 123.26 9.29696 123.253 9.24119L123.197 8.77339C123.125 8.16934 122.646 7.69309 122.039 7.62142L121.569 7.56591C121.513 7.55929 121.513 7.47837 121.569 7.47175L122.039 7.41624C122.646 7.34457 123.125 6.86832 123.197 6.26426L123.253 5.79646Z" fill="#BFC3C9"/>
</svg>
