<svg width="20" height="21" viewBox="0 0 20 21" fill="none" xmlns="http://www.w3.org/2000/svg">
<g clip-path="url(#clip0_23_1278)">
<path d="M12.2353 0.0498047H0.941177C0.421384 0.0498047 0 0.471188 0 0.990981V17.9322C0 18.452 0.421384 18.8733 0.941177 18.8733H8.71031C7.96593 17.8062 7.52941 16.5083 7.52941 15.1086C7.52941 11.47 10.4791 8.52039 14.1176 8.52039C15.1281 8.52039 16.0854 8.74788 16.9412 9.15437V4.75569L12.2353 0.0498047ZM10.1512 12.5928C10.1879 11.9083 10.716 11.3517 11.3976 11.2793L12.2171 11.1923C12.3144 11.1819 12.4061 11.1411 12.479 11.0757L13.092 10.525C13.6018 10.0668 14.3688 10.0468 14.902 10.4776L15.5431 10.9955C15.6192 11.057 15.7128 11.0929 15.8106 11.0982L16.6335 11.1422C17.3179 11.1788 17.8745 11.707 17.947 12.3886L18.034 13.2081C18.0443 13.3054 18.0852 13.3971 18.1506 13.4699L18.7013 14.0829C19.1594 14.5928 19.1795 15.3598 18.7487 15.893L18.2308 16.534C18.1693 16.6102 18.1334 16.7038 18.1281 16.8016L18.084 17.6245C18.0474 18.3089 17.5192 18.8655 16.8376 18.938L16.0182 19.025C15.9208 19.0353 15.8292 19.0762 15.7563 19.1416L15.1433 19.6923C14.6335 20.1504 13.8664 20.1705 13.3333 19.7397L12.6922 19.2218C12.6161 19.1603 12.5224 19.1243 12.4247 19.1191L11.6018 19.075C10.9174 19.0384 10.3608 18.5102 10.2883 17.8286L10.2013 17.0091C10.191 16.9118 10.1501 16.8202 10.0847 16.7473L9.53402 16.1343C9.07586 15.6245 9.05581 14.8573 9.48659 14.3243L10.0045 13.6832C10.066 13.6071 10.1019 13.5134 10.1072 13.4156L10.1512 12.5928ZM16.9697 14.196L15.9715 13.1978L13.6471 15.5221L12.2638 14.1389L11.2656 15.1371L13.148 17.0195L13.6471 17.5187L14.1462 17.0195L16.9697 14.196Z" fill="#3C54EF"/>
</g>
<defs>
<clipPath id="clip0_23_1278">
<rect width="20" height="20" fill="white" transform="translate(0 0.0498047)"/>
</clipPath>
</defs>
</svg>
