<svg width="20" height="21" viewBox="0 0 20 21" fill="none" xmlns="http://www.w3.org/2000/svg">
<path d="M12.9107 10.8181C13.1225 10.6278 13.4278 10.5962 13.6705 10.7283L13.7711 10.7957L14.3052 11.2273C14.4141 11.3151 14.5418 11.3751 14.6773 11.4041L14.815 11.4226L15.5015 11.4597C15.786 11.4751 16.0241 11.669 16.1021 11.9343L16.1255 12.0515L16.1978 12.7341V12.7351C16.2127 12.8744 16.2601 13.0074 16.3355 13.1238L16.4205 13.2341L16.8795 13.7449C17.0699 13.9569 17.1008 14.2628 16.9683 14.5056L16.9019 14.6052L16.4703 15.1394C16.3824 15.2483 16.3216 15.3759 16.2925 15.5115L16.274 15.6492V15.6501L16.2369 16.3357C16.2215 16.6199 16.0282 16.8581 15.7632 16.9363L15.6451 16.9597L14.9625 17.032C14.823 17.0468 14.6893 17.0941 14.5728 17.1697L14.4625 17.2546L13.9517 17.7136C13.7399 17.9038 13.4346 17.9346 13.192 17.8025L13.0914 17.7361L12.5572 17.3044L12.4429 17.2253C12.3627 17.1792 12.2756 17.146 12.1851 17.1267L12.0474 17.1082L11.3619 17.072C11.0774 17.0568 10.8385 16.8626 10.7603 16.5974L10.7369 16.4792L10.6646 15.7966L10.6392 15.6599C10.6152 15.5705 10.5772 15.4856 10.5269 15.408L10.4429 15.2966H10.442L9.98395 14.7859C9.79356 14.574 9.76194 14.2688 9.8941 14.0261L9.96051 13.9265L10.3922 13.3923L10.3931 13.3914C10.4809 13.2825 10.5409 13.1548 10.5699 13.0193L10.5884 12.8816L10.6255 12.196C10.6408 11.9114 10.8348 11.6735 11.1002 11.5955L11.2173 11.572L11.9 11.4988C12.0394 11.4839 12.1731 11.4366 12.2896 11.3611L12.4 11.2771L12.9107 10.8181ZM2.45074 2.21655H11.6558L15.2838 5.84448V8.56909C14.6999 8.37934 14.0774 8.27515 13.4312 8.27515C10.123 8.27518 7.44108 10.9572 7.44098 14.2654C7.44098 15.2114 7.66125 16.1069 8.05231 16.9031H2.45074C2.29391 16.903 2.16677 16.7757 2.16656 16.6189V2.50073C2.16664 2.34382 2.29383 2.21663 2.45074 2.21655ZM14.6226 12.3201L13.0386 13.9021L12.2398 13.1042L11.8863 12.7507L11.5328 13.1042L10.7007 13.9353L10.3472 14.2898L10.7007 14.6433L12.2701 16.2117L12.6851 16.6277L13.0386 16.9812L13.3931 16.6277L13.8082 16.2117L16.5152 13.5046L16.1617 13.1511L15.3297 12.3201L14.9761 11.9666L14.6226 12.3201Z" stroke="#A1A8B3"/>
</svg>
