<svg width="20" height="21" viewBox="0 0 20 21" fill="none" xmlns="http://www.w3.org/2000/svg">
<path d="M5.1421 15.0498C5.48529 14.0788 6.41132 13.3831 7.49984 13.3831C8.58834 13.3831 9.51442 14.0788 9.85759 15.0498H18.3332V16.7164H9.85759C9.51442 17.6874 8.58834 18.3831 7.49984 18.3831C6.41132 18.3831 5.48529 17.6874 5.1421 16.7164H1.6665V15.0498H5.1421ZM10.1421 9.21643C10.4853 8.24544 11.4113 7.54976 12.4998 7.54976C13.5883 7.54976 14.5144 8.24544 14.8576 9.21643H18.3332V10.8831H14.8576C14.5144 11.8541 13.5883 12.5498 12.4998 12.5498C11.4113 12.5498 10.4853 11.8541 10.1421 10.8831H1.6665V9.21643H10.1421ZM5.1421 3.3831C5.48529 2.41211 6.41132 1.71643 7.49984 1.71643C8.58834 1.71643 9.51442 2.41211 9.85759 3.3831H18.3332V5.04976H9.85759C9.51442 6.02076 8.58834 6.71643 7.49984 6.71643C6.41132 6.71643 5.48529 6.02076 5.1421 5.04976H1.6665V3.3831H5.1421ZM7.49984 5.04976C7.96007 5.04976 8.33317 4.67666 8.33317 4.21643C8.33317 3.7562 7.96007 3.3831 7.49984 3.3831C7.0396 3.3831 6.6665 3.7562 6.6665 4.21643C6.6665 4.67666 7.0396 5.04976 7.49984 5.04976ZM12.4998 10.8831C12.9601 10.8831 13.3332 10.51 13.3332 10.0498C13.3332 9.58951 12.9601 9.21643 12.4998 9.21643C12.0396 9.21643 11.6665 9.58951 11.6665 10.0498C11.6665 10.51 12.0396 10.8831 12.4998 10.8831ZM7.49984 16.7164C7.96007 16.7164 8.33317 16.3433 8.33317 15.8831C8.33317 15.4228 7.96007 15.0498 7.49984 15.0498C7.0396 15.0498 6.6665 15.4228 6.6665 15.8831C6.6665 16.3433 7.0396 16.7164 7.49984 16.7164Z" fill="#A1A8B3"/>
</svg>
