<svg width="20" height="21" viewBox="0 0 20 21" fill="none" xmlns="http://www.w3.org/2000/svg">
<g clip-path="url(#clip0_23_1299)">
<path d="M10.0002 11.7165V13.3832C7.23874 13.3832 5.00016 15.6218 5.00016 18.3832H3.3335C3.3335 14.7013 6.31826 11.7165 10.0002 11.7165ZM10.0002 10.8832C7.23766 10.8832 5.00016 8.64568 5.00016 5.88318C5.00016 3.12068 7.23766 0.883179 10.0002 0.883179C12.7627 0.883179 15.0002 3.12068 15.0002 5.88318C15.0002 8.64568 12.7627 10.8832 10.0002 10.8832ZM10.0002 9.21651C11.8418 9.21651 13.3335 7.72485 13.3335 5.88318C13.3335 4.04151 11.8418 2.54985 10.0002 2.54985C8.1585 2.54985 6.66683 4.04151 6.66683 5.88318C6.66683 7.72485 8.1585 9.21651 10.0002 9.21651ZM12.1623 15.7261C12.1107 15.5091 12.0835 15.2827 12.0835 15.0498C12.0835 14.8171 12.1107 14.5907 12.1622 14.3737L11.3359 13.8966L12.1692 12.4532L12.9962 12.9306C13.3237 12.6208 13.7232 12.386 14.1668 12.2539V11.2998H15.8335V12.2539C16.2772 12.386 16.6765 12.6208 17.0041 12.9306L17.8311 12.4531L18.6645 13.8965L17.8381 14.3736C17.8896 14.5907 17.9168 14.8171 17.9168 15.0498C17.9168 15.2826 17.8896 15.509 17.8381 15.726L18.6645 16.2031L17.8312 17.6465L17.0042 17.169C16.6766 17.4789 16.2772 17.7137 15.8336 17.8457V18.7998H14.1669V17.8458C13.7232 17.7138 13.3238 17.479 12.9962 17.1691L12.1693 17.6466L11.3359 16.2032L12.1623 15.7261ZM15.0002 16.2998C15.6905 16.2998 16.2502 15.7402 16.2502 15.0498C16.2502 14.3595 15.6905 13.7998 15.0002 13.7998C14.3098 13.7998 13.7502 14.3595 13.7502 15.0498C13.7502 15.7402 14.3098 16.2998 15.0002 16.2998Z" fill="#A1A8B3"/>
</g>
<defs>
<clipPath id="clip0_23_1299">
<rect width="20" height="20" fill="white" transform="translate(0 0.0498047)"/>
</clipPath>
</defs>
</svg>
